<?xml version="1.0" encoding="iso-8859-1"?>
<!-- Generator: Adobe Illustrator 19.0.0, SVG Export Plug-In . SVG Version: 6.00 Build 0)  -->
<svg version="1.1" id="Capa_1" xmlns="http://www.w3.org/2000/svg" xmlns:xlink="http://www.w3.org/1999/xlink" x="0px" y="0px"
	 viewBox="0 0 512.001 512.001" style="enable-background:new 0 0 512.001 512.001;" xml:space="preserve">
<g>
	<g>
		<path d="M436.526,107.678c-48.677-48.468-113.259-75.002-181.77-74.703c-62.185,0.268-122.052,23.101-168.575,64.292
			C40.07,138.095,10.193,194.04,2.057,254.796L0,270.157l230.87,23.379v179.451l99.113-33.037
			c8.559,15.736,22.745,28.136,40.708,34.57c8.48,3.037,17.148,4.51,25.689,4.51c21.859-0.001,42.852-9.657,57.477-27.452
			c37.495-45.625,58.145-103.33,58.145-162.484C512.001,220.568,485.197,156.14,436.526,107.678z M260.884,431.344V296.575
			l46.532,4.712c7.694,0.778,13.495,7.197,13.495,14.93c0,0,0.131,92.57,0.361,94.997L260.884,431.344z M430.667,432.521
			c-14.794,18.001-35.454,18.902-49.856,13.743c-14.448-5.175-29.886-19.036-29.886-42.416v-87.63
			c0-23.199-17.404-42.455-40.485-44.792L34.397,243.472C55.633,140.004,147.807,63.45,254.885,62.988
			c60.497-0.255,117.484,23.164,160.463,65.958c42.973,42.789,66.638,99.663,66.638,160.146
			C481.986,341.315,463.76,392.252,430.667,432.521z"/>
	</g>
</g>
<g>
	<g>
		<path d="M407.952,344.115c-11.033,0-20.009,8.976-20.009,20.009s8.976,20.009,20.009,20.009s20.009-8.976,20.009-20.009
			S418.985,344.115,407.952,344.115z"/>
	</g>
</g>
<g>
</g>
<g>
</g>
<g>
</g>
<g>
</g>
<g>
</g>
<g>
</g>
<g>
</g>
<g>
</g>
<g>
</g>
<g>
</g>
<g>
</g>
<g>
</g>
<g>
</g>
<g>
</g>
<g>
</g>
</svg>
